# xmcd CD database file
#
# Track frame offsets:
#	150
#	18627
#	45062
#	68552
#	96052
#	118260
#	137067
#	169255
#	189702
#	206987
#
# Disc length: 3084 seconds
#
# Revision: 0
# Processed by: cddbd v1.5.1PL0 Copyright (c) Steve Scherf et al.
# Submitted via: CDex 1.51
#
DISCID=8c0c0a0a
DTITLE=tripode - prise 1
DYEAR=1900
DGENRE=Jazz
TTITLE0=from l.a.
TTITLE1=afrika
TTITLE2=lament
TTITLE3=bambino
TTITLE4=suden samba
TTITLE5=space groove
TTITLE6=m.c.v.
TTITLE7=charlot
TTITLE8=tendinite
TTITLE9=alone together
EXTD=
EXTT0=
EXTT1=
EXTT2=
EXTT3=
EXTT4=
EXTT5=
EXTT6=
EXTT7=
EXTT8=
EXTT9=
PLAYORDER=
